<?xml version="1.0" encoding="utf-8"?>
<!-- Generator: Adobe Illustrator 26.1.0, SVG Export Plug-In . SVG Version: 6.00 Build 0)  -->
<!DOCTYPE svg PUBLIC "-//W3C//DTD SVG 1.1//EN" "http://www.w3.org/Graphics/SVG/1.1/DTD/svg11.dtd" [
	<!ENTITY ns_extend "http://ns.adobe.com/Extensibility/1.0/">
	<!ENTITY ns_ai "http://ns.adobe.com/AdobeIllustrator/10.0/">
	<!ENTITY ns_graphs "http://ns.adobe.com/Graphs/1.0/">
	<!ENTITY ns_vars "http://ns.adobe.com/Variables/1.0/">
	<!ENTITY ns_imrep "http://ns.adobe.com/ImageReplacement/1.0/">
	<!ENTITY ns_sfw "http://ns.adobe.com/SaveForWeb/1.0/">
	<!ENTITY ns_custom "http://ns.adobe.com/GenericCustomNamespace/1.0/">
	<!ENTITY ns_adobe_xpath "http://ns.adobe.com/XPath/1.0/">
]>
<svg version="1.1" id="Layer_1" xmlns:x="&ns_extend;" xmlns:i="&ns_ai;" xmlns:graph="&ns_graphs;"
	 xmlns="http://www.w3.org/2000/svg" xmlns:xlink="http://www.w3.org/1999/xlink" x="0px" y="0px" width="183.9px" height="100.6px"
	 viewBox="0 0 183.9 100.6" style="enable-background:new 0 0 183.9 100.6;" xml:space="preserve">
<style type="text/css">
	.st0{fill-rule:evenodd;clip-rule:evenodd;fill:#D1D3D4;stroke:#000000;stroke-width:0.5;stroke-miterlimit:2.6131;}
	.st1{fill:none;stroke:#000000;stroke-width:0.5;stroke-miterlimit:2.6131;}
	.st2{fill-rule:evenodd;clip-rule:evenodd;fill:#FFFFFF;stroke:#000000;stroke-width:0.5;stroke-miterlimit:2.6131;}
	.st3{fill-rule:evenodd;clip-rule:evenodd;stroke:#000000;stroke-width:0.5;stroke-miterlimit:2.6131;}
	.st4{fill-rule:evenodd;clip-rule:evenodd;fill:#FFFFFF;}
	.st5{fill-rule:evenodd;clip-rule:evenodd;fill:#E6E7E8;stroke:#000000;stroke-width:0.5;stroke-miterlimit:2.6131;}
	.st6{fill:none;stroke:#808285;stroke-width:0.4997;stroke-miterlimit:2.6131;}
	.st7{fill:none;stroke:#00AEEF;stroke-width:2.0001;stroke-miterlimit:2.6131;}
	
		.st8{fill-rule:evenodd;clip-rule:evenodd;fill:#00AEEF;stroke:#FFFFFF;stroke-width:1.0001;stroke-linecap:round;stroke-linejoin:round;stroke-miterlimit:2.6131;}
	.st9{fill-rule:evenodd;clip-rule:evenodd;fill:#BCBEC0;stroke:#000000;stroke-width:0.5;stroke-miterlimit:2.6131;}
	.st10{fill-rule:evenodd;clip-rule:evenodd;fill:#808285;stroke:#000000;stroke-width:0.5;stroke-miterlimit:2.6131;}
	.st11{fill-rule:evenodd;clip-rule:evenodd;fill:#FFCB05;stroke:#FFCB05;stroke-width:0.5;stroke-miterlimit:2.6131;}
	.st12{fill-rule:evenodd;clip-rule:evenodd;fill:#FFCB05;stroke:#000000;stroke-width:0.5;stroke-miterlimit:2.6131;}
	.st13{fill-rule:evenodd;clip-rule:evenodd;fill:#D1D3D4;stroke:#00AEEF;stroke-width:2.0001;stroke-miterlimit:2.6131;}
</style>
<metadata>
	<sfw  xmlns="&ns_sfw;">
		<slices></slices>
		<sliceSourceBounds  bottomLeftOrigin="true" height="100.6" width="183.9" x="213.1" y="345.1"></sliceSourceBounds>
	</sfw>
</metadata>
<g>
	<path class="st0" d="M86.1,55.7c0.1-0.1,0.3-0.2,0.5-0.2c1.7,0.3,2.7,1.2,3.4,1.9c0.1,0.1,0.2,0.3,0.1,0.5l-0.3,1.4
		c0,0.1,0,0.2,0.1,0.2l1,0.2l-0.6,0.5l0.2,0.1c1.6-2.2,4.7-0.5,4.2,1.7l-0.4,2.1l-5.1,1.6c-1.7,1.4-4.8,1.9-7.1,0.1
		c-0.2-0.1-0.3-0.4-0.2-0.6l0.6-2.6l1.4-4.5L86.1,55.7L86.1,55.7z"/>
	<path class="st1" d="M86.3,58.3c0.5,0.1,1.1-0.3,1.2-0.8c0.1-0.5-0.3-1.1-0.8-1.2c-0.5-0.1-1.1,0.3-1.2,0.8
		C85.4,57.7,85.7,58.2,86.3,58.3L86.3,58.3z M86.8,56.9l0.1,0.2l0.1,0.2l-0.2,0.2l-0.2,0.2l-0.3,0l-0.3,0L86,57.5l-0.1-0.2l0.2-0.2
		l0.2-0.2l0.3,0L86.8,56.9L86.8,56.9z M84.6,66.3c0.5,0.1,1.1-0.3,1.2-0.8c0.1-0.5-0.3-1.1-0.8-1.2c-0.5-0.1-1.1,0.3-1.2,0.8
		C83.7,65.6,84,66.2,84.6,66.3L84.6,66.3z M85.1,64.9l0.1,0.2l0.1,0.2l-0.2,0.2l-0.2,0.2l-0.3,0l-0.3,0l-0.1-0.2l-0.1-0.2l0.2-0.2
		l0.2-0.2l0.3,0L85.1,64.9L85.1,64.9z"/>
	<path class="st0" d="M73.9,70.4l1-4.6c0-0.1,0-0.3-0.2-0.3c-0.2,0-0.3-0.2-0.2-0.3l1.1-5.3c0-0.1,0.1-0.3,0.3-0.2
		c0.1,0,0.3-0.1,0.3-0.2c0-0.1,0.2-0.2,0.3-0.2l0.5,0.1c0.1,0,0.2-0.1,0.3-0.2c0.4-2,3.3-1.4,2.9,0.6c0,0.1,0.1,0.3,0.2,0.3l0.5,0.1
		c0.1,0,0.2,0.1,0.2,0.3c0,0.2,0.1,0.3,0.2,0.3c0.2,0,0.3,0.2,0.2,0.4l-1.1,5.3l-0.3,0.2l-0.3,0.2l-1,4.6l-0.3,0.2l-4.4-0.9
		C74,70.7,73.9,70.5,73.9,70.4L73.9,70.4z"/>
	<path class="st1" d="M77,59.3L77,59.3l3.4,0.8l0.1,0 M74.9,63.1c0-0.1,0.3-0.2,0.4-0.2l2,0.4c0.1,0,0.2,0.2,0.2,0.3L77.5,64
		l0.7,0.2l0.1-0.4c0-0.2,0.2-0.2,0.3-0.2l2,0.4c0.1,0,0.3,0.2,0.3,0.4 M75.2,61.9c0,0.1,0.2,0.3,0.3,0.3l2.2,0.5l0.2-0.7l0.8,0.2
		l-0.2,0.7l2.2,0.5c0.1,0,0.4,0,0.4-0.2 M78,62.9c0.1,0,0.2,0.1,0.2,0.2c0,0.1-0.1,0.2-0.2,0.2s-0.2-0.1-0.2-0.2
		C77.8,63,77.9,62.9,78,62.9L78,62.9z M78.1,62.1l0.3,0.1l-0.1,0.4L78,62.5L78.1,62.1L78.1,62.1z M77.7,62.7c0.2,0,0.3,0,0.3-0.2
		 M78.3,62.6c0,0.2,0.1,0.2,0.2,0.3 M77.3,63.3L77.2,64l1.3,0.3l0.1-0.7 M77.2,64c0.1,0,0.2-0.1,0.3,0 M78.2,64.1
		c0.1,0,0.2,0.1,0.2,0.1 M77.8,62c0,0.1,0.1,0.1,0.2,0.1 M78.4,62.2c0.1,0,0.2,0,0.3,0 M77.6,63.6l0.7,0.2 M79.3,57.2
		c0.4,0,0.8-0.4,0.8-0.8c0-0.5-0.4-0.8-0.8-0.8c-0.4,0-0.8,0.4-0.8,0.8C78.5,56.9,78.9,57.2,79.3,57.2L79.3,57.2z M79.3,56
		c0.2,0,0.4,0.2,0.4,0.4c0,0.2-0.2,0.4-0.4,0.4c-0.2,0-0.4-0.2-0.4-0.4C78.9,56.2,79.1,56,79.3,56L79.3,56z M92.7,58.7
		c0.4,0,0.8-0.4,0.8-0.8c0-0.5-0.4-0.8-0.8-0.8c-0.5,0-0.8,0.4-0.8,0.8C91.9,58.3,92.3,58.7,92.7,58.7L92.7,58.7z M92.7,57.4
		c0.2,0,0.4,0.2,0.4,0.4c0,0.2-0.2,0.4-0.4,0.4c-0.2,0-0.4-0.2-0.4-0.4C92.3,57.6,92.5,57.4,92.7,57.4L92.7,57.4z M90.3,60.3
		l2.1-1.7 M93.1,58.6l-1,0.8 M82.2,60.5l-2.7-3.3 M82.1,61.1L78.8,57"/>
	<path class="st0" d="M92,66.5c1.3,0,2.3-1,2.3-2.3c0-0.8-0.4-1.5-1-1.9l0,0l-5.7-3.9v0c-0.6-0.4-1.2-0.6-2-0.6
		c-1.9,0-3.5,1.6-3.5,3.5c0,1.6,1.1,3,2.7,3.4v0l6.6,1.7l0,0l0,0h0C91.6,66.5,91.8,66.5,92,66.5L92,66.5z"/>
	<path class="st1" d="M85.6,59.5c1,0,1.7,0.8,1.7,1.7c0,1-0.8,1.7-1.7,1.7c-1,0-1.7-0.8-1.7-1.7C83.9,60.3,84.6,59.5,85.6,59.5
		L85.6,59.5z"/>
	<path class="st2" d="M60.9,14.4c0.9,0,1.7,0.6,1.9,1.4c0.1,0.3,0.4,1.3,1.8,1.3c2.5,0,4.8,1.2,6.1,3.1v0l0,0l0.1,0.1
		c0.4,0.5,1.1,0.9,1.7,0.9l7.4,0c0.9,0,2.2-0.5,2.5-1.4l2.1-5.7c0.2-0.7,0.1-1.6-0.2-2.4L82,6.6c-0.3-0.7,0-1.5,0.8-1.7
		c9.9-3.4,19.2,0.6,24.1,8.7c0.3,0.7,0.2,1.5-0.3,1.8l-11.6,5.5c-0.5,0.3-0.8,0.7-0.7,1.2c0.2,0.8,0.3,1.7,0,2.5l-2.4,5.7
		c-0.6,1.3-2.6,1.6-3.6,0.6c-0.2-0.1-0.9-0.6-1-0.8c-0.9-1.5-2.9-3.2-5.4-3.2h-8.2c-0.8,0-1.8,0.5-2.1,1.3l0,0
		c-1.2,2.5-3.8,4.2-6.8,4.2c-0.6,0-1.1-0.1-1.7-0.1c-0.7-0.1-1.4,0.2-1.8,0.6c-0.2,0.2-0.3,0.4-0.5,0.6c-0.4,0.4-0.9,0.6-1.5,0.6
		c-1.1,0-2-0.9-2-2c0-0.5,0.2-0.9,0.4-1.2c0.7-0.8,0.8-1.4,0.4-2.3c-0.6-1.1-1-2.4-1-3.8c0-1.9,0.7-3.7,1.9-5
		c0.5-0.6,0.6-1.6,0.2-2.2c-0.2-0.3-0.3-0.7-0.3-1.1C58.9,15.3,59.8,14.4,60.9,14.4L60.9,14.4z"/>
	<path class="st3" d="M83.8,5.7c0.4,0,0.7,0.3,0.7,0.7c0,0.4-0.3,0.7-0.7,0.7c-0.4,0-0.7-0.3-0.7-0.7C83.1,6.1,83.4,5.7,83.8,5.7
		L83.8,5.7z"/>
	<path class="st3" d="M86,5.1c0.4,0,0.7,0.3,0.7,0.7c0,0.4-0.3,0.7-0.7,0.7c-0.4,0-0.7-0.3-0.7-0.7C85.3,5.4,85.6,5.1,86,5.1L86,5.1
		z"/>
	<path class="st3" d="M88.2,4.8c0.4,0,0.7,0.3,0.7,0.7c0,0.4-0.3,0.7-0.7,0.7c-0.4,0-0.7-0.3-0.7-0.7C87.5,5.1,87.8,4.8,88.2,4.8
		L88.2,4.8z"/>
	<path class="st3" d="M89.8,4.2l2.2,1c0,0,0,0.1,0,0.1L90,6.8c0,0-0.2-0.1-0.1-0.1l0.4-1.2l-0.7-1.1C89.6,4.3,89.7,4.2,89.8,4.2
		L89.8,4.2z"/>
	<path class="st3" d="M100.1,7.9c0.2,0.3,0.2,0.7-0.1,1c-0.3,0.2-0.7,0.2-1-0.1c-0.2-0.3-0.2-0.7,0.1-1C99.5,7.6,99.9,7.6,100.1,7.9
		L100.1,7.9z"/>
	<path class="st3" d="M101.9,9.3c0.2,0.3,0.2,0.7-0.1,1c-0.3,0.2-0.7,0.2-1-0.1c-0.2-0.3-0.2-0.7,0.1-1C101.3,8.9,101.7,9,101.9,9.3
		L101.9,9.3z"/>
	<path class="st3" d="M103.6,10.8c0.2,0.3,0.2,0.7-0.1,1c-0.3,0.2-0.7,0.2-1-0.1c-0.2-0.3-0.2-0.7,0.1-1
		C102.9,10.5,103.3,10.5,103.6,10.8L103.6,10.8z"/>
	<path class="st3" d="M105,11.8l0.2,2.3c0,0-0.1,0.1-0.1,0.1l-2-1c-0.1,0,0-0.2,0-0.2l1.2-0.1l0.5-1.2C104.8,11.6,105,11.7,105,11.8
		L105,11.8z"/>
	<path class="st1" d="M82.3,7.4c0.5,0.8,1,1.1,1.8,0.8c8.2-2.8,15.8,0.7,19.6,7.1c0.4,0.6,1,0.9,1.7,0.6 M64.7,18.6c3.3,0,6,2.7,6,6
		c0,3.3-2.7,6-6,6c-3.3,0-6-2.7-6-6C58.6,21.3,61.3,18.6,64.7,18.6L64.7,18.6z"/>
	<path class="st4" d="M89.8,15.1c1,0,1.9,0.7,2.2,1.6l2,4.5c0.3,0.6,0.5,1.3,0.5,2c0,0.7-0.2,1.4-0.5,2l0,0L91.9,30
		c-0.3,0.9-1.2,1.5-2.1,1.5c-1,0-1.8-0.6-2.1-1.4c-0.7-1.6-1.4-3.2-2.1-4.8c-0.3-0.6-0.4-1.2-0.4-1.9c0-0.6,0.1-1.3,0.4-1.8l0,0l0,0
		c0.7-1.6,1.4-3.2,2.1-4.7C87.9,15.8,88.7,15.1,89.8,15.1L89.8,15.1z M87.6,16.7L87.6,16.7L87.6,16.7L87.6,16.7z"/>
	<path class="st1" d="M89.8,15.1c1,0,1.9,0.7,2.2,1.6l2,4.5c0.3,0.6,0.5,1.3,0.5,2c0,0.7-0.2,1.4-0.5,2l0,0L91.9,30
		c-0.3,0.9-1.2,1.5-2.1,1.5c-1,0-1.8-0.6-2.1-1.4c-0.7-1.6-1.4-3.2-2.1-4.8c-0.3-0.6-0.4-1.2-0.4-1.9c0-0.6,0.1-1.3,0.4-1.8l0,0l0,0
		c0.7-1.6,1.4-3.2,2.1-4.7C87.9,15.8,88.7,15.1,89.8,15.1L89.8,15.1z M87.6,16.7L87.6,16.7"/>
	<path class="st2" d="M89.8,18.8c2.5,0,4.5,2,4.5,4.5c0,2.5-2,4.5-4.5,4.5c-2.5,0-4.5-2-4.5-4.5C85.3,20.8,87.3,18.8,89.8,18.8
		L89.8,18.8z"/>
	<path class="st2" d="M89.8,21.6c0.9,0,1.7,0.8,1.7,1.7c0,0.9-0.8,1.7-1.7,1.7c-0.9,0-1.7-0.8-1.7-1.7
		C88.1,22.3,88.8,21.6,89.8,21.6L89.8,21.6z"/>
	<path class="st4" d="M64.7,16.5c1,0,1.9,0.7,2.2,1.6l2,4.5c0.3,0.6,0.5,1.3,0.5,2c0,0.7-0.2,1.4-0.5,2v0l-2.1,4.7
		c-0.3,0.9-1.2,1.5-2.1,1.5c-1,0-1.8-0.6-2.1-1.4c-0.7-1.6-1.4-3.2-2.1-4.8C60.2,26,60,25.3,60,24.7c0-0.6,0.1-1.3,0.4-1.8l0,0l0,0
		c0.7-1.6,1.4-3.2,2.1-4.7C62.8,17.2,63.6,16.5,64.7,16.5L64.7,16.5z M62.5,18.1L62.5,18.1L62.5,18.1L62.5,18.1z"/>
	<path class="st1" d="M64.7,16.5c1,0,1.9,0.7,2.2,1.6l2,4.5c0.3,0.6,0.5,1.3,0.5,2c0,0.7-0.2,1.4-0.5,2v0l-2.1,4.7
		c-0.3,0.9-1.2,1.5-2.1,1.5c-1,0-1.8-0.6-2.1-1.4c-0.7-1.6-1.4-3.2-2.1-4.8C60.2,26,60,25.3,60,24.7c0-0.6,0.1-1.3,0.4-1.8l0,0l0,0
		c0.7-1.6,1.4-3.2,2.1-4.7C62.8,17.2,63.6,16.5,64.7,16.5L64.7,16.5z M62.5,18.1L62.5,18.1"/>
	<path class="st2" d="M64.7,20.2c2.5,0,4.5,2,4.5,4.5c0,2.5-2,4.5-4.5,4.5c-2.5,0-4.5-2-4.5-4.5C60.2,22.2,62.2,20.2,64.7,20.2
		L64.7,20.2z"/>
	<path class="st2" d="M64.7,23c0.9,0,1.7,0.8,1.7,1.7c0,0.9-0.8,1.7-1.7,1.7c-0.9,0-1.7-0.8-1.7-1.7C63,23.7,63.7,23,64.7,23
		L64.7,23z"/>
	<path class="st1" d="M60.9,15.1c0.7,0,1.3,0.6,1.3,1.3c0,0.7-0.6,1.3-1.3,1.3c-0.7,0-1.3-0.6-1.3-1.3
		C59.6,15.7,60.2,15.1,60.9,15.1L60.9,15.1z M59.3,30.7c0.7,0,1.3,0.6,1.3,1.3c0,0.7-0.6,1.3-1.3,1.3c-0.7,0-1.3-0.6-1.3-1.3
		C58,31.3,58.5,30.7,59.3,30.7L59.3,30.7z M60.9,15.1c0.7,0,1.3,0.6,1.3,1.3c0,0.7-0.6,1.3-1.3,1.3c-0.7,0-1.3-0.6-1.3-1.3
		C59.6,15.7,60.2,15.1,60.9,15.1L60.9,15.1z M60.9,15.8l0.3,0.2l0.3,0.2v0.3v0.3l-0.3,0.2l-0.3,0.2l-0.3-0.2l-0.3-0.2v-0.3v-0.3
		l0.3-0.2L60.9,15.8L60.9,15.8z M59.3,30.7c0.7,0,1.3,0.6,1.3,1.3c0,0.7-0.6,1.3-1.3,1.3c-0.7,0-1.3-0.6-1.3-1.3
		C58,31.3,58.5,30.7,59.3,30.7L59.3,30.7z M59.3,31.3l0.3,0.2l0.3,0.2V32v0.3l-0.3,0.2l-0.3,0.2L59,32.5l-0.3-0.2V32v-0.3l0.3-0.2
		L59.3,31.3L59.3,31.3z M85.1,23.2H70.5 M85.4,24.9H70.7"/>
	<path class="st0" d="M20.2,67.6l-0.5-1.7c-0.1-0.3,0-0.6,0.1-0.8c2.7-4.7,6.9-8.1,11.9-10.7v5.1l-0.2,0l0.2,36.1h-9.2l0-9.3
		l-0.7-9.4L20.2,67.6L20.2,67.6z"/>
	<polygon class="st0" points="26.8,49.6 30.2,49.6 30.2,52.8 26.8,52.8 26.8,49.6 	"/>
	<path class="st0" d="M26.9,49.6L26.9,49.6v3.2l0,0h0v0c-0.1,0-0.2-0.1-0.2-0.2v-2.8C26.6,49.7,26.7,49.6,26.9,49.6L26.9,49.6
		L26.9,49.6L26.9,49.6z"/>
	<path class="st1" d="M30.2,49.9h-3.4 M30.2,52.5h-3.4 M30.2,52.1h-3.4 M30.2,51.5h-3.4 M30.2,50.9h-3.4 M30.2,50.3h-3.4"/>
	<polygon class="st0" points="33.2,50.3 30.2,50.3 30.2,52.1 33.2,52.1 33.2,50.3 	"/>
	<polygon class="st0" points="28.7,53.5 30.6,53.1 30.9,54.9 28.9,56.1 28.9,54.4 28.7,53.5 	"/>
	<path class="st0" d="M28.8,53.9l2-0.3c0.1,0,0.2-0.1,0.2-0.2l2.1-4c0.1-0.1,0.2-0.2,0.4-0.2h2.1c0.2,0,0.4,0.2,0.4,0.4v10.8l-0.3,0
		V49.6c0-0.1-0.1-0.1-0.1-0.1h-2.2c-0.1,0-0.1,0.1-0.2,0.1l-2.1,4c-0.1,0.1-0.2,0.2-0.4,0.2l-1.9,0.3L28.8,53.9L28.8,53.9z"/>
	<path class="st0" d="M36.3,53.9l1-0.4l0.1,0.3l-0.9,0.4c-0.2,0.1-0.3,0.1-0.4,0v-0.4C36.1,53.9,36.2,53.9,36.3,53.9L36.3,53.9z"/>
	<path class="st0" d="M33.3,49.6h2.5v23.8L35.4,74v10.4h-0.1h-3.5l0-1.3l0,0c0-0.1,0-0.2,0.1-0.2l0.6-0.3V81l-0.5,0
		c-0.1,0-0.2-0.1-0.2-0.2l0,0l0-17.1c0-0.1,0.1-0.2,0.2-0.2l0.5,0v-1.5L32,61.8c-0.1,0-0.1-0.1-0.1-0.2l0-1.7l1.4,0V49.6L33.3,49.6z
		"/>
	<path class="st0" d="M32.3,57.3c0-0.1-0.1-0.2-0.2-0.2h-0.3l0-0.2h0.3c0.2,0,0.4,0.2,0.4,0.4v2.5h-0.2V57.3L32.3,57.3z"/>
	<path class="st0" d="M36.5,66.2v7.5h-0.7v-7.6c0-0.3,0.2-0.6,0.4-0.7l0.5-0.3c0.1,0,0.2-0.1,0.2-0.2v-5.7h0.7v5.8
		c0,0.2-0.1,0.5-0.4,0.7l-0.6,0.3C36.5,66.1,36.5,66.1,36.5,66.2L36.5,66.2z"/>
	<path class="st0" d="M37,70.5h0.5l0,0c0.1,0,0.3-0.1,0.3-0.3v-1.6c0-0.1-0.1-0.3-0.3-0.3l0,0H37V70.5L37,70.5z"/>
	<line class="st1" x1="37.5" y1="70.5" x2="37.5" y2="68.3"/>
	<polygon class="st0" points="37,70.7 36.5,70.7 36.5,68.1 37,68.1 37,70.7 	"/>
	<polygon class="st0" points="31.7,84.4 35.4,84.4 35.4,74 35.8,73.4 35.8,84.9 35.8,95.7 31.8,95.7 31.7,84.4 	"/>
	<polygon class="st0" points="35.8,74.4 43.1,74.4 43.1,78 35.8,78 35.8,74.4 	"/>
	<path class="st0" d="M41.1,74.5c0.9,0,1.7,0.7,1.7,1.7c0,0.9-0.7,1.7-1.7,1.7c-0.9,0-1.7-0.7-1.7-1.7
		C39.5,75.3,40.2,74.5,41.1,74.5L41.1,74.5z"/>
	<path class="st0" d="M41.1,74.9c0.7,0,1.3,0.6,1.3,1.3s-0.6,1.3-1.3,1.3c-0.7,0-1.3-0.6-1.3-1.3S40.4,74.9,41.1,74.9L41.1,74.9z"/>
	<polygon class="st0" points="41.4,75.7 41.6,75.9 41.8,76.2 41.6,76.5 41.4,76.8 41.1,76.8 40.8,76.8 40.6,76.5 40.5,76.2 
		40.6,75.9 40.8,75.7 41.1,75.7 41.4,75.7 	"/>
	<path class="st0" d="M41.1,79.5c0.7,0,1.3,0.6,1.3,1.3c0,0.7-0.6,1.3-1.3,1.3c-0.7,0-1.3-0.6-1.3-1.3
		C39.8,80.1,40.4,79.5,41.1,79.5L41.1,79.5z"/>
	<polygon class="st0" points="41.4,80.2 41.6,80.5 41.8,80.8 41.6,81 41.4,81.3 41.1,81.3 40.8,81.3 40.6,81 40.5,80.8 40.6,80.5 
		40.8,80.2 41.1,80.2 41.4,80.2 	"/>
	<polygon class="st0" points="37.6,93.6 37.6,79.1 38.2,78.5 44.1,78.5 44.6,79.1 44.6,92.6 40.7,92.6 40.1,93.2 40.1,93.6 
		37.6,93.6 	"/>
	<polygon class="st0" points="43.8,74.4 51.8,74.4 51.8,74.1 53.4,74.1 53.4,74.4 57.3,74.4 57.3,87.7 53.5,87.7 53.5,88.1 
		51.8,88.1 51.8,87.7 44.6,87.7 44.6,79.1 44.1,78.5 43.8,78.4 43.8,74.4 	"/>
	<polygon class="st0" points="51.8,86.2 53.5,86.2 53.5,88.1 51.8,88.1 51.8,86.2 	"/>
	<polygon class="st0" points="51.2,83.4 54,83.4 54,86.2 51.2,86.2 51.2,83.4 	"/>
	<polygon class="st0" points="49.4,78.8 55.8,78.8 55.8,83.4 49.4,83.4 49.4,78.8 	"/>
	<polygon class="st0" points="51.8,74.1 53.4,74.1 53.4,78.8 51.8,78.8 51.8,74.1 	"/>
	<polygon class="st0" points="57.3,78.9 58,78.9 58,83.3 57.3,83.3 57.3,78.9 	"/>
	<polygon class="st0" points="61.6,79.7 58,79.7 58,82.6 61.6,82.6 61.6,79.7 	"/>
	<polygon class="st0" points="51.6,84.6 53.7,84.6 53.7,85.4 51.6,85.4 51.6,84.6 	"/>
	<path class="st1" d="M36.8,63.7l-0.9-0.6v-1.2c0-0.6,0.6-0.6,0.8-0.6v0.6c0,0.1,0,0.1,0.1,0.2 M37.5,64.2l1.1,0.7"/>
	<path class="st0" d="M42.8,56.9c0.9,0,1.6,0.7,1.6,1.6c0,0.9-0.7,1.6-1.6,1.6c-0.9,0-1.6-0.7-1.6-1.6C41.3,57.6,42,56.9,42.8,56.9
		L42.8,56.9z"/>
	<path class="st5" d="M137.2,11.2h8c1.3,0,2.3,1,2.3,2.3v53.9c0,1.3-1,2.3-2.3,2.3h-8c-1.3,0-2.3-1-2.3-2.3V13.5
		C134.9,12.2,135.9,11.2,137.2,11.2L137.2,11.2z"/>
	<path class="st1" d="M144.9,38.9h0.8V38v-0.2v-0.2c0-0.5-0.4-0.9-0.9-0.9h-7.2c-0.5,0-0.9,0.4-0.9,0.9v0.2V38v0.9h0.8l0,2.5
		c0.5,0.6,1.1,1,1.9,1.4l0.1-0.4l0-3.9c0-0.1,0.1-0.1,0.2-0.1h2.9c0.1,0,0.2,0,0.2,0.1l0,3.9l0.1,0.4c0.7-0.3,1.4-0.7,1.9-1.4
		L144.9,38.9L144.9,38.9z M139.5,33.4h3.4c0.1,0,0.2,0.1,0.2,0.2v0.3v2.7v0.2h-0.2h-3.4h-0.2v-0.2v-2.7v-0.3
		C139.3,33.5,139.4,33.4,139.5,33.4L139.5,33.4z"/>
	<path class="st1" d="M143.1,34.9v1.8h-3.8v-1.8C139.3,33.7,143.1,33.7,143.1,34.9L143.1,34.9z M139.8,42.4h2.8v-0.7h-2.8V42.4
		L139.8,42.4z M139.8,38.4h2.8v0.3h-2.8V38.4L139.8,38.4z M140.4,39c-0.5,0-0.5,0.5,0,0.5l1.7,0.3 M142,39.9c0.5,0,0.5-0.5,0-0.5
		l-1.7-0.3 M140.4,39.9c-0.5,0-0.5,0.4,0,0.5l1.7,0.3 M142,40.8c0.5,0,0.5-0.5,0-0.5l-1.7-0.3 M140.4,40.8c-0.5,0-0.5,0.5,0,0.5
		l1.7,0.3 M142,41.7c0.5,0,0.5-0.5,0-0.5l-1.7-0.3 M140.4,38.7v0.5 M140.4,39.5v0.6 M140.4,40.4V41 M140.4,41.8v-0.5 M142,38.7v0.7
		 M142,39.7v0.6 M142,40.6v0.6 M142,41.8v-0.3 M139.7,38.7h3v31h-3V38.7L139.7,38.7z M141.2,66.7c0.7,0,1.3,0.6,1.3,1.3
		c0,0.7-0.6,1.3-1.3,1.3c-0.7,0-1.3-0.6-1.3-1.3C139.9,67.3,140.5,66.7,141.2,66.7L141.2,66.7z M141.2,67.4l0.3,0.2l0.3,0.2V68v0.3
		l-0.3,0.2l-0.3,0.2l-0.3-0.2l-0.3-0.2V68v-0.3l0.3-0.2L141.2,67.4L141.2,67.4z M137.1,23.3c0.7,0,1.3,0.6,1.3,1.3s-0.6,1.3-1.3,1.3
		c-0.7,0-1.3-0.6-1.3-1.3S136.4,23.3,137.1,23.3L137.1,23.3z M137.1,23.9l0.3,0.2l0.3,0.2v0.3v0.3l-0.3,0.2l-0.3,0.2l-0.3-0.2
		l-0.3-0.2v-0.3v-0.3l0.3-0.2L137.1,23.9L137.1,23.9z M145.3,23.3c0.7,0,1.3,0.6,1.3,1.3s-0.6,1.3-1.3,1.3c-0.7,0-1.3-0.6-1.3-1.3
		S144.6,23.3,145.3,23.3L145.3,23.3z M145.3,23.9l0.3,0.2l0.3,0.2v0.3v0.3l-0.3,0.2l-0.3,0.2L145,25l-0.3-0.2v-0.3v-0.3l0.3-0.2
		L145.3,23.9L145.3,23.9z M38.2,48.2h0.3l0,4.5c0,0.1,0,0.1,0,0.2l0.3,0.9h-0.3L38.3,53c0-0.1,0-0.3,0-0.4V48.2L38.2,48.2z
		 M37.2,49.8h1v2h-1V49.8L37.2,49.8z M38.6,50.1h0.7v1.5h-0.7V50.1L38.6,50.1z M39.7,51.4h0.7v-1.1h-0.7V51.4L39.7,51.4z M40.5,54.5
		h4.6 M40.2,53.9v-0.3c0-0.3,0.2-0.5,0.4-0.7 M39.4,53.5h0.3v0.3h-0.3V53.5L39.4,53.5z M46.7,52.3h1.8h0.3V52v-0.3l0,0
		c0-0.2-0.1-0.3-0.3-0.3h-1.8c-0.2,0-0.3,0.1-0.3,0.3l0,0V52v0.3H46.7L46.7,52.3z M46.5,51.7h2.3 M44,50.8h1.1v1.1h-1.3 M44.5,51.9
		v0.4 M58.2,52.3h-9.4L47.5,52h-1.4l-1-0.2h-1.2 M48.7,52.4l-1.1-0.3h-1.4l-1-0.3h-1.2 M43.4,52.3h5.2 M40.5,55.1h4.6 M37.7,58
		c-0.3-0.2-0.4-0.4-0.3-0.7l0.3-0.6 M37.7,56l-0.6-0.6l0.3-0.3l0.3,0.3 M48.5,51.4v-2c0-0.1-0.1-0.1-0.1-0.1h-1
		c-0.1,0-0.2,0-0.2-0.1C47,48.4,47,48,46.7,47.5 M38.6,48.2c0.2-0.6,0.4-1.1,0.8-1.6 M45.1,50.9c0.2-0.2,0.3-0.4,0.3-0.6 M64.3,52.4
		c0.2-0.1,0.4-0.3,0.4-0.5v-1.9h-0.1V52c0,0.2-0.3,0.4-0.4,0.4 M62,52.3l0.4,0l1.9-0.3l0,0.2l-1,0.2 M64.3,52.4H62 M44,78.5l0.6,0.6
		v13.5h-3.9l-0.6,0.6V95h-2.5l0-15.9l0.6-0.6h2.3c0.4-0.1,0.8-0.1,1.2,0H44L44,78.5z M40.8,80.2h0.3h0.3l0.2,0.3l0.2,0.3L41.6,81
		l-0.2,0.3h-0.3h-0.3L40.6,81l-0.2-0.3l0.2-0.3L40.8,80.2L40.8,80.2z M41.1,79.5c0.7,0,1.3,0.6,1.3,1.3c0,0.7-0.6,1.3-1.3,1.3
		c-0.7,0-1.3-0.6-1.3-1.3C39.9,80.1,40.4,79.5,41.1,79.5L41.1,79.5z M41.1,78.5c1.3,0,2.3,1,2.3,2.3c0,1.3-1,2.3-2.3,2.3
		c-1.3,0-2.3-1-2.3-2.3C38.8,79.5,39.8,78.5,41.1,78.5L41.1,78.5z M35.8,91h0.7v3.9c0,0,0,0.1,0.1,0.1l3.5,0l0,0.7l-3.6,0
		c-0.4,0-0.7-0.4-0.7-0.8V91L35.8,91z M26,58.1c-0.2-18.5,2.1-36.4,6-53.5c0.6-2.5,2.3-3.9,4.8-4.3v0.3l0.4,0v54.1 M40.7,92.6h106.3
		l0.6,0.6v2.4H40.1l0-2.5L40.7,92.6L40.7,92.6z M150.8,93.2l0.6-0.6h19.9v2.2c0,0.5-0.4,0.8-0.8,0.8h-19.7V93.2L150.8,93.2z
		 M147.5,95h3.3v0.7h-3.3V95L147.5,95z M181.2,50.8l1.2,0c0.6,0,1.2,0.6,1.2,1.2v9.7c0,0.2,0,0.3-0.1,0.5
		c-6.2,10.1-9.2,21.4-9.2,33.5h-2.6c-0.5-12.7,2.7-24.2,9.5-34.4V50.8L181.2,50.8z M170.5,95.6h1.2 M162.8,3.1
		c12.6,11.6,19.5,25.7,20.8,42.3c0,0.3-0.2,0.6-0.5,0.6l-1.9,0c-2-15.2-7-29.3-20.1-40.8c-1-0.9-2.2-1.5-3.7-1.6L150.4,3V0.6l0.4,0
		V0.3l6.6,0.6C159.5,1,161.4,1.9,162.8,3.1L162.8,3.1z M183.6,51.9c0.1-2.1,0-4.3-0.1-6.4 M150.8,0.5H36.8 M148.8,95V13.2
		c0-1.1-1.2-2.3-2.3-2.3l-1.1,0c-0.3,0-0.5-0.3-0.5-0.6l0-1.7c0-0.1,0.1-0.2,0.2-0.3 M145,6.6c-0.1,0-0.2-0.1-0.2-0.3V4.6
		c0-0.3,0.3-0.5,0.6-0.6l5.1-0.1V0.5 M146.4,6.8l0.3,0.2l0.3,0.2v0.3v0.3l-0.3,0.2l-0.3,0.2l-0.3-0.2l-0.3-0.2V7.4V7.1l0.3-0.2
		L146.4,6.8L146.4,6.8z M147,6.3c0.6,0.3,0.8,1.1,0.5,1.7c-0.3,0.6-1.1,0.8-1.7,0.5c-0.6-0.3-0.8-1.1-0.5-1.7
		C145.6,6.2,146.4,6,147,6.3L147,6.3z"/>
	<path class="st6" d="M89.8,21.5c1,0,1.8,0.8,1.8,1.8c0,1-0.8,1.8-1.8,1.8c-1,0-1.8-0.8-1.8-1.8C88,22.3,88.8,21.5,89.8,21.5
		L89.8,21.5z M64.7,22.9c1,0,1.7,0.8,1.7,1.7c0,1-0.8,1.7-1.7,1.7s-1.7-0.8-1.7-1.7C62.9,23.7,63.7,22.9,64.7,22.9L64.7,22.9z"/>
	<path class="st7" d="M106.5,36.6L94.1,65.2c-0.3,0.8-1.3,1.5-2.6,1.3L81,63.8l-6-1.3l-27.9-5.6l-3.5-1.5c-0.5-0.2-1.1-0.2-1.6-0.2
		C26.5,56,7.6,63,0.4,66.6"/>
	<polygon class="st8" points="95.6,61.1 95.8,50.4 98.3,54.9 103.3,53.6 95.6,61.1 	"/>
	<path class="st1" d="M146.4,5.8c0.9,0,1.6,0.7,1.6,1.6c0,0.9-0.7,1.6-1.6,1.6c-0.9,0-1.6-0.7-1.6-1.6
		C144.8,6.5,145.5,5.8,146.4,5.8L146.4,5.8z"/>
	<polygon class="st9" points="39.4,33.4 46,33.4 46,48.9 39.4,48.9 39.4,33.4 	"/>
	<polygon class="st9" points="39.1,35 46.4,35 46.8,43.1 38.8,43.1 39.1,35 	"/>
	<path class="st0" d="M48.1,33.5L48.1,33.5c0,0.6,0.5,1.1,1.1,1.1c0.6,0,1.1-0.5,1.1-1.1v-4.4c0-0.6-0.5-1.1-1.1-1.1
		c-0.6,0-1.1,0.5-1.1,1.1l0,0V33.5L48.1,33.5z"/>
	<path class="st0" d="M49.2,32.4c0.6,0,1.1,0.5,1.1,1.1c0,0.6-0.5,1.1-1.1,1.1c-0.6,0-1.1-0.5-1.1-1.1
		C48.1,32.9,48.6,32.4,49.2,32.4L49.2,32.4z"/>
	<path class="st0" d="M49.2,28c0.6,0,1.1,0.5,1.1,1.1c0,0.6-0.5,1.1-1.1,1.1c-0.6,0-1.1-0.5-1.1-1.1C48.1,28.5,48.6,28,49.2,28
		L49.2,28z"/>
	<polygon class="st0" points="49.2,33 49.4,33.1 49.7,33.2 49.7,33.5 49.7,33.8 49.4,33.9 49.2,34.1 49,33.9 48.7,33.8 48.7,33.5 
		48.7,33.2 49,33.1 49.2,33 	"/>
	<polygon class="st0" points="49.2,28.6 49.4,28.7 49.7,28.8 49.7,29.1 49.7,29.4 49.4,29.5 49.2,29.7 49,29.5 48.7,29.4 48.7,29.1 
		48.7,28.8 49,28.7 49.2,28.6 	"/>
	<polygon class="st0" points="45.7,27.3 47.4,28.4 46.8,29.3 45.2,28.1 45.7,27.3 	"/>
	<polygon class="st10" points="50.6,29.4 45.9,29.4 45.9,31.7 50.6,31.7 50.6,29.4 	"/>
	<path class="st10" d="M40.5,34.7L40.5,34.7c-1-0.7-1.7-2-1.7-3.3c0-2.3,1.8-4.1,4.1-4.1c2.3,0,4.1,1.8,4.1,4.1
		c0,0.8-0.2,1.5-0.6,2.1l0,0c0.6,4.4-0.4,9.2-2.2,11.8C43,46.9,40,45.1,41.5,43c0.5-0.7,1-0.5,1.2-1.6
		C43.3,39.2,40.8,38.6,40.5,34.7L40.5,34.7z"/>
	<path class="st1" d="M42.9,27.2c2.3,0,4.1,1.8,4.1,4.1s-1.8,4.1-4.1,4.1c-2.3,0-4.1-1.8-4.1-4.1S40.6,27.2,42.9,27.2L42.9,27.2z
		 M44,36.1c0.6,0,1,0.5,1,1c0,0.6-0.5,1-1,1c-0.6,0-1-0.5-1-1C42.9,36.6,43.4,36.1,44,36.1L44,36.1z"/>
	<path class="st11" d="M42.3,39.3c-0.5-0.8-1-1.6-1.3-2.4L40.7,37c-0.1,0-0.1,0.1-0.1,0.2c0.3,0.9,0.8,1.7,1.4,2.5
		c0.6,0.9,0.5,1.9-0.4,2.7c-0.5,0.4-0.9,1-1,1.7c0,0.1,0.1,0.1,0.1,0.1l0.3,0c0-0.6,0.4-1.2,1-1.7C42.7,41.9,43.1,40.6,42.3,39.3
		L42.3,39.3z"/>
	<path class="st1" d="M44,36.4v1.5 M44.7,37.1h-1.5"/>
	<polygon class="st2" points="39.7,48.9 46,48.9 46,50.3 39.7,50.3 39.7,48.9 	"/>
	<polygon class="st2" points="46.7,46.2 46,46.2 46,50.3 46.7,50.3 46.7,46.2 	"/>
	<path class="st2" d="M42.8,50.3h0.1H44v1.1c0,0.6-0.5,1.1-1.1,1.1h-0.1c-0.6,0-1.1-0.5-1.1-1.1v-1.1H42.8L42.8,50.3z"/>
	<path class="st2" d="M42.8,50.3L42.8,50.3H43v0.2v1.2v0.5c0,0.1-0.1,0.2-0.2,0.2l0,0c-0.1,0-0.2-0.1-0.2-0.2v-0.5v-1.2v-0.2H42.8
		L42.8,50.3z"/>
	<path class="st1" d="M75.3,54.4c0.5,0.3,0.6,0.9,0.4,1.4c-0.3,0.5-0.9,0.6-1.4,0.4c-0.5-0.3-0.6-0.9-0.4-1.4
		C74.2,54.3,74.8,54.1,75.3,54.4L75.3,54.4z M75.1,54.8l0.1,0.2l0.1,0.2l-0.1,0.2l-0.1,0.2h-0.2h-0.2l-0.1-0.2l-0.1-0.2l0.1-0.2
		l0.1-0.2h0.2H75.1L75.1,54.8z M71.2,58.5c0.5,0.3,0.6,0.9,0.4,1.4c-0.3,0.5-0.9,0.6-1.4,0.4c-0.5-0.3-0.6-0.9-0.4-1.4
		C70.1,58.4,70.8,58.2,71.2,58.5L71.2,58.5z M71,58.9l0.1,0.2l0.1,0.2l-0.1,0.2L71,59.8h-0.2h-0.2l-0.1-0.2l-0.1-0.2l0.1-0.2
		l0.1-0.2h0.2H71L71,58.9z"/>
	<polygon class="st0" points="60.5,59.5 70,59.1 70.9,59.2 69.5,65.7 68,65.4 67.6,64.7 68,62.7 65.7,62.2 65.5,63.1 59.6,61.8 
		60,60 60.5,59.5 	"/>
	<path class="st1" d="M69.1,65.6l1.4-6.5 M74.3,52.5h1.1c0.2,0,0.4,0.1,0.5,0.3c1.8,3.7-1,8.4-5.5,8.2 M54.6,52.8h12.5l0,4.1
		L65.8,57c-0.3,0-0.3,0.4-0.7,0.4l-2.4,0.2c-0.3,0-0.4-0.4-0.7-0.4l-6.8,0.5c-0.2,0-0.5-0.1-0.5-0.5L54.6,52.8L54.6,52.8z"/>
	<path class="st3" d="M46.8,41.7l10.4,9.4c0,0.1,0,0.2,0.1,0.3l-10.6-9.6L46.8,41.7L46.8,41.7z"/>
	<path class="st1" d="M54.5,52.3v-4.1l11.9,0v3.6 M58.2,51.5h3.5c0.5,0,0.6,0.7,0.3,0.9h-3.8V52h3.5c0.1,0,0.1-0.1,0-0.1h-3.5
		c-0.5,0-1-0.4-1-0.9l0-0.2l0.4,0l0,0.3C57.7,51.2,57.9,51.5,58.2,51.5L58.2,51.5z M65.8,52.4h1.7v-0.4c0-0.4-1.7-0.4-1.7,0V52.4
		L65.8,52.4z M65.8,52.1h1.7"/>
	<path class="st2" d="M67.5,52.1l6.3,0c0.2,0,0.5,0.3,0.5,0.5v1.3c0,2-1.6,3.5-3.4,3.6l-3,0.2c-0.4,0-0.9-0.4-0.9-0.8l0-4.3
		C67.1,52.4,67.3,52.1,67.5,52.1L67.5,52.1z"/>
	<path class="st1" d="M70.1,54.1h1.2c0.7,0,1.2,0.5,1.2,1.2v0c0,0.7-0.5,1.2-1.2,1.2h-1.2c-0.7,0-1.2-0.5-1.2-1.2v0
		C69,54.6,69.5,54.1,70.1,54.1L70.1,54.1z M71.3,54.5c0.4,0,0.7,0.4,0.7,0.8v0c0,0.4-0.3,0.8-0.7,0.8 M70.1,56.1
		c-0.4,0-0.7-0.4-0.7-0.8v0c0-0.4,0.3-0.8,0.7-0.8 M71.2,54.4c0.5,0.3,0.6,0.9,0.4,1.4c-0.3,0.5-0.9,0.6-1.4,0.4
		c-0.5-0.3-0.6-0.9-0.4-1.4C70.1,54.3,70.8,54.2,71.2,54.4L71.2,54.4z M71,54.9l0.1,0.2l0.1,0.2l-0.1,0.2L71,55.7h-0.2h-0.2
		l-0.1-0.2l-0.1-0.2l0.1-0.2l0.1-0.2h0.2H71L71,54.9z M58.6,51.4h2.2v-0.5c0-0.5-2.2-0.5-2.2,0V51.4L58.6,51.4z M58.6,50.9h2.2
		 M59.8,61.1l-0.2,0v-2.8h0.9v0.7h6.1 M66.6,59.2v-1c0-0.3-0.2-0.5-0.5-0.4L62,58.1l-1.1,0.4l0.1,0.4l1.1-0.3l4.1-0.3v1 M65.3,57.4
		c0.1,0.1,0.1,0.3,0.2,0.4 M65.7,58.2c0.1,0.2,0.3,0.5,0.4,0.7 M48.4,56.8l5.1,1c0.4,0.1,0.7-0.1,0.7-0.5l0.1-4.5h-2.9
		c-0.3,0-0.5,0.3-0.5,0.5L50.7,55c0,0.1-0.1,0.2-0.2,0.2h-0.2c-0.1,0-0.2-0.1-0.2-0.2v-1.6h-2.3 M47.9,54.7l2,0
		c0.2,0,0.2,0.2,0.2,0.3v0.8c0,0.3-0.2,0.4-0.4,0.4l-0.7,0c-0.4,0.3-0.7,0.7-0.9,1.1l-0.1,0 M46,58.4h7.6l5.4,1.2
		c0.2,0.1,0.4,0.2,0.4,0.5v1.6c0,0.1,0,0.2,0.1,0.2l7,1.5c0.2,0,0.3,0.2,0.3,0.4l0.2,11h-9.8 M43.8,74.6l-0.1,3.9h-2.1
		c-0.4-0.1-0.8-0.1-1.1,0h-1.8L38.7,78 M38.7,74.4l0-3.8 M48.3,58.4v-1l-0.3-0.3v-4.1c0-0.3-0.1-0.6-0.4-0.6h-1.1
		c-0.3,0-0.4,0.1-0.5,0.3l-0.8,1.7v1.8 M40.5,56.3v-1.9c0-0.3-0.2-0.6-0.5-0.6l-1.7,0c-0.3,0-0.5,0.2-0.5,0.4l-0.2,10 M39.6,58.4h-1
		l0,12.1 M42.8,56.9c0.9,0,1.5,0.7,1.5,1.5c0,0.9-0.7,1.5-1.5,1.5c-0.9,0-1.5-0.7-1.5-1.5C41.3,57.6,42,56.9,42.8,56.9L42.8,56.9z
		 M41.5,59.3L41,59.6c-0.2-0.3-0.3-0.7-0.3-1.2c0-1.2,1-2.1,2.1-2.1c1.2,0,2.1,1,2.1,2.1c0,0.4-0.1,0.8-0.3,1.1l-0.5-0.3 M42.8,55.3
		c1.8,0,3.2,1.4,3.2,3.2c0,1.8-1.4,3.2-3.2,3.2c-1.8,0-3.2-1.4-3.2-3.2C39.6,56.7,41.1,55.3,42.8,55.3L42.8,55.3z M45.1,56.2h-4.6
		 M44.8,60.9h-4 M45.1,55.3h-3.7c-0.4,0.1-0.7,0.4-0.9,0.6 M37.2,64l1.3,0.9 M37.6,63.4h10.6l0-1.7c0-0.5,0.2-0.8,0.7-0.8h1.6
		c0.4,0,0.7,0.4,0.7,0.7l0,2.8h14.5L66,74.6 M48.2,57.4l4.7,1 M54.2,58.6l0.1-0.5c0-0.2-0.1-0.3-0.3-0.4 M49.4,57.7l0.2-0.6
		 M54.7,57.5l0,0.6c0,0.2,0.4,0.2,0.4,0l0-0.3 M48.2,62.1l1.7,0c0.1,0,0.3-0.1,0.3-0.3l0-0.8c0-0.1-0.1-0.1-0.1-0.2 M51.2,61.4
		l-1-0.2 M57.4,64.3l-0.3,1.5l-8-1.7l0.4-1.9 M50.1,62l-0.5,2.1 M47.1,63.4L47,70.5l-8.4,0 M47.8,63.4l0,1.4l1.7,0.4l0.4,0.4
		l0.1,2.2c0,0.2,0.4,0.4,0.6,0.4h1.3c0.2,0,0.5-0.2,0.5-0.4l0-1.5l0.3-0.3l0.2,0l0.4,0.4l0,2.7h-4.5l0-2.5L48.9,65 M47,66.5h2
		 M50,67.5h2.4 M49.9,65.6l0.1-1.2 M48.6,64.9l-0.1-0.9 M43.9,70.5l-0.1,4.1 M43.9,73.8h-5.1 M61.4,67.1l0.1,6.8h4.4 M65.9,69.4
		h-3.4l0-2.1 M62.4,68.5l0.5,0.5h2.1l0.7-0.7 M63.8,66.1H64h0.3l0.1,0.2l0.1,0.2l-0.1,0.2L64.3,67H64h-0.3l-0.1-0.2l-0.1-0.2
		l0.1-0.2L63.8,66.1L63.8,66.1z M64,65.5c0.6,0,1,0.4,1,1c0,0.6-0.4,1-1,1c-0.6,0-1-0.4-1-1C63,66,63.5,65.5,64,65.5L64,65.5z"/>
	<path class="st12" d="M56.5,66.1l3.4,0.7l-1.4,6.5c0,0.1-0.1,0.1-0.2,0.1l-4.2-0.9c-0.1,0-0.1-0.1-0.1-0.2l0.8-4l-1-3.1
		c0-0.1-0.1-0.1-0.2-0.1L52.8,65l-2.6,0c0,0-0.1,0-0.1-0.1l0-0.5L48.4,64c0,0-0.1-0.1-0.1-0.1l0-0.6l0.9,0.2L49.1,64l7.5,1.7
		L56.5,66.1L56.5,66.1z"/>
	<path class="st1" d="M50.1,64.4l2.7,0.6 M54.8,68.4l0.5-2.5l1.2,0.3 M54.7,72.7l0.8-3.6c0.1-0.5,0.7-0.3,0.6,0.1l-0.7,3.6
		 M55.8,72.9l1.1-5c0.1-0.3,0.6-0.3,0.5,0.1l-1,5 M56.9,73.1l0.8-3.6c0.1-0.5,0.7-0.3,0.6,0.1l-0.7,3.6 M62.7,67.1
		c-0.1,0.5-2.2,0.1-2.1-0.5l0.1-0.6l2.1,0.5L62.7,67.1L62.7,67.1z M62.7,67.1l-2.1-0.5 M60.8,66C60.8,66,60.7,66,60.8,66
		c-0.1-0.2,0-0.3,0.1-0.3l1.9,0.2c0.2,0,0.3-0.3,0-0.3 M60.8,65.8c-0.1-0.2,0.1-0.3,0.1-0.3l1.9,0.2c0.2,0,0.3-0.3,0-0.3 M60.9,65.5
		c-0.1-0.2,0.1-0.3,0.1-0.3l1.9,0.2c0.2,0,0.3-0.3,0-0.3 M60.9,65.2c-0.1-0.2,0.1-0.3,0.2-0.3l1.9,0.2c0.2,0,0.3-0.3,0-0.3 M61,64.8
		c-0.1-0.2,0.1-0.3,0.2-0.3l1.9,0.2c0.2,0,0.3-0.3,0-0.3 M61.1,64.6c-0.1-0.2,0.1-0.3,0.1-0.3l1.9,0.2c0.1,0,0.1,0,0.2,0 M60.7,66.1
		C60.8,66.1,60.8,66.1,60.7,66.1l2,0.2c0.2,0,0.3-0.3,0-0.3 M62.8,66.6c0.1-0.1,0.1-0.2-0.1-0.3 M63.9,64.3l-0.1,0.3l-1.4-0.3
		 M47.9,67.1l0.3,0.2l0.3,0.2v0.3v0.3l-0.3,0.2l-0.3,0.2l-0.3-0.2l-0.3-0.2v-0.3v-0.3l0.3-0.2L47.9,67.1L47.9,67.1z M47,66.8
		c0.1-0.1,0.3-0.2,0.5-0.3 M48.3,66.5c0.1,0,0.2,0.1,0.2,0.1c0.2,0.1,0.3,0.2,0.4,0.4 M49,68.5c-0.4,0.5-1.1,0.7-1.7,0.3
		c-0.1-0.1-0.2-0.1-0.3-0.2 M49.9,66.4c0.2,0.3,0.3,0.7,0.4,1.1 M50,69c-0.4,0.7-1.2,1.1-2,1.1c-0.3,0-0.7-0.1-1-0.2 M41.1,75.6
		c0.3,0,0.6,0.3,0.6,0.6c0,0.3-0.3,0.6-0.6,0.6c-0.3,0-0.6-0.3-0.6-0.6C40.5,75.9,40.8,75.6,41.1,75.6L41.1,75.6z M67.1,52.8l0-0.4
		h-27c-0.3,0-0.4-0.1-0.4-0.4v-3.2h-0.3v3.2c0,0.2,0,0.3,0.2,0.4h-0.6v0.3h1.7v1.3c0,0.3,0.2,0.4,0.4,0.4h3.6c0.2,0,0.4-0.2,0.4-0.4
		v-1.4h0.9c0.1-0.2,0.2-0.3,0.4-0.3h1.2c0.2,0,0.3,0.1,0.4,0.3L67.1,52.8L67.1,52.8z M40.6,52.8v-0.3 M44.9,52.8v-0.3 M51.9,100.3
		h-7v-3.5h7V100.3L51.9,100.3z M51.3,96.8h-5.8v-1.1h5.8V96.8L51.3,96.8z M144.8,100.3h-7v-3.5h7V100.3L144.8,100.3z M144.2,96.8
		h-5.8v-1.1h5.8V96.8L144.2,96.8z"/>
	<polygon class="st12" points="60.1,59.6 66,60.9 65.5,63.1 59.6,61.9 60.1,59.6 	"/>
	<path class="st1" d="M63.3,60.3L63,62.1c0,0.2-0.2,0.3-0.3,0.2l0,0c-0.2,0-0.3-0.2-0.2-0.3l0.3-1.8 M65,60.6l-0.2,1.3
		c0,0.2-0.2,0.3-0.3,0.2l0,0c-0.2,0-0.3-0.2-0.2-0.3l0.2-1.3 M61.7,60l-0.2,1.3c0,0.2-0.2,0.3-0.3,0.2l0,0c-0.2,0-0.3-0.2-0.2-0.3
		l0.2-1.3"/>
	<path class="st13" d="M141.3,12.7c20.6,0,37.3,16.7,37.3,37.3c0,20.6-16.7,37.3-37.3,37.3C120.7,87.3,104,70.6,104,50
		C104,29.4,120.7,12.7,141.3,12.7L141.3,12.7z M141.3,64.1c7.8,0,14.1-6.3,14.1-14.1c0-7.8-6.3-14.1-14.1-14.1
		c-7.8,0-14.1,6.3-14.1,14.1C127.2,57.8,133.5,64.1,141.3,64.1L141.3,64.1z"/>
	<g>
		<path class="st12" d="M138.7,7.8h5.1c0.1,0,0.3,0.1,0.3,0.3v28.4c0,0.1-0.1,0.3-0.3,0.3h-5.1c-0.1,0-0.3-0.1-0.3-0.3V8.1
			C138.4,7.9,138.5,7.8,138.7,7.8L138.7,7.8z"/>
		<polygon class="st12" points="139.2,8.6 143.2,8.6 143.2,32.5 139.2,32.5 139.2,8.6 		"/>
		<polygon class="st12" points="139.2,28.1 141,28.1 141,24.6 139.2,24.6 139.2,24.2 141,24.2 141,20.6 139.2,20.6 139.2,20.2 
			141,20.2 141,16.7 139.2,16.7 139.2,16.3 141,16.3 141,12.7 139.2,12.7 139.2,12.3 141,12.3 141,8.6 141.4,8.6 141.4,12.3 
			143.2,12.3 143.2,12.7 141.4,12.7 141.4,16.3 143.2,16.3 143.2,16.7 141.4,16.7 141.4,20.2 143.2,20.2 143.2,20.6 141.4,20.6 
			141.4,24.2 143.2,24.2 143.2,24.6 141.4,24.6 141.4,28.1 143.2,28.1 143.2,28.5 141.4,28.5 141.4,32.5 141,32.5 141,28.5 
			139.2,28.5 139.2,28.1 		"/>
		<path class="st12" d="M138.7,7.8h5.1c0.1,0,0.3,0.1,0.3,0.3v28.4c0,0.1-0.1,0.3-0.3,0.3h-5.1c-0.1,0-0.3-0.1-0.3-0.3V8.1
			C138.4,7.9,138.5,7.8,138.7,7.8L138.7,7.8z"/>
		<polygon class="st12" points="139.2,8.6 143.2,8.6 143.2,32.5 139.2,32.5 139.2,8.6 		"/>
		<polygon class="st12" points="139.2,28.1 141,28.1 141,24.6 139.2,24.6 139.2,24.2 141,24.2 141,20.6 139.2,20.6 139.2,20.2 
			141,20.2 141,16.7 139.2,16.7 139.2,16.3 141,16.3 141,12.7 139.2,12.7 139.2,12.3 141,12.3 141,8.6 141.4,8.6 141.4,12.3 
			143.2,12.3 143.2,12.7 141.4,12.7 141.4,16.3 143.2,16.3 143.2,16.7 141.4,16.7 141.4,20.2 143.2,20.2 143.2,20.6 141.4,20.6 
			141.4,24.2 143.2,24.2 143.2,24.6 141.4,24.6 141.4,28.1 143.2,28.1 143.2,28.5 141.4,28.5 141.4,32.5 141,32.5 141,28.5 
			139.2,28.5 139.2,28.1 		"/>
	</g>
</g>
</svg>
